<?xml version="1.0" encoding="UTF-8"?>
<!-- Generator: Adobe Illustrator 23.0.1, SVG Export Plug-In . SVG Version: 6.00 Build 0)  -->
<!DOCTYPE svg PUBLIC "-//W3C//DTD SVG 1.1//EN" "http://www.w3.org/Graphics/SVG/1.1/DTD/svg11.dtd" [
<!ENTITY ns_extend "http://ns.adobe.com/Extensibility/1.0/">
<!ENTITY ns_ai "http://ns.adobe.com/AdobeIllustrator/10.0/">
<!ENTITY ns_graphs "http://ns.adobe.com/Graphs/1.0/">
<!ENTITY ns_vars "http://ns.adobe.com/Variables/1.0/">
<!ENTITY ns_imrep "http://ns.adobe.com/ImageReplacement/1.0/">
<!ENTITY ns_sfw "http://ns.adobe.com/SaveForWeb/1.0/">
<!ENTITY ns_custom "http://ns.adobe.com/GenericCustomNamespace/1.0/">
<!ENTITY ns_adobe_xpath "http://ns.adobe.com/XPath/1.0/">
]>
<svg xmlns:x="&ns_extend;" xmlns:i="&ns_ai;" xmlns:graph="&ns_graphs;" xmlns="http://www.w3.org/2000/svg" xmlns:xlink="http://www.w3.org/1999/xlink" version="1.1" id="Icon_x5F_contour" x="0px" y="0px" viewBox="0 0 192 192" enable-background="new 0 0 192 192" xml:space="preserve">
<metadata>
	<sfw xmlns="&ns_sfw;">
		<slices/>
		<sliceSourceBounds bottomLeftOrigin="true" height="124.7" width="120" x="36" y="-160.4"/>
		<optimizationSettings>
			<targetSettings fileFormat="PNG24Format" targetSettingsID="0">
				<PNG24Format filtered="false" interlaced="false" matteColor="#FFFFFF" noMatteColor="false" transparency="false">
					</PNG24Format>
			</targetSettings>
		</optimizationSettings>
	</sfw>
</metadata>
<path d="M128,89.4v-40L96,35.6L64,49.4v40l-28,12v45.3l32,13.7l28-12l28,12l32-13.7v-45.3L128,89.4z M124,111.6l-17.8-7.6l5.8-2.5  l12-5.1l17.8,7.6L124,111.6z M92,66.6v31.3l-8-3.4l-12-5.1V58.1L92,66.6z M108,94.5l-8,3.4V66.6l20-8.6v31.3L108,94.5z M80,101.5  l5.8,2.5L68,111.6L50.2,104L68,96.4L80,101.5z M72,118.6l20-8.6v31.3l-20,8.6V118.6z M113.8,52L96,59.6L78.2,52L96,44.4L113.8,52z   M44,110.1l20,8.6v31.3l-20-8.6V110.1z M100,110.1l20,8.6v31.3l-20-8.6V110.1z M128,149.9v-31.3l20-8.6v31.3L128,149.9z" style="fill: #ffffff;"/>
</svg>
