<?xml version="1.0" encoding="UTF-8"?>
<svg xmlns="http://www.w3.org/2000/svg" viewBox="0 0 192 192"><path d="M120 100H56v-8h64v8zm-64 20h40v-8H56v8zm120 24c0 17.645-14.355 32-32 32s-32-14.355-32-32 14.355-32 32-32 32 14.355 32 32zm-8 0c0-13.234-10.766-24-24-24s-24 10.766-24 24 10.766 24 24 24 24-10.766 24-24zm-48-72H56v8h64v-8zm0 103.978V176H40V16h81.815L152 50.497v54.308a40.027 40.027 0 0 0-8-.805V56h-28V24H48v144h64.022a40.342 40.342 0 0 0 7.978 7.978zM124 48h15.185L124 30.646V48zm32 92v-4c0-6.617-5.383-12-12-12s-12 5.383-12 12v4h-4v20h32v-20h-4zm-16-4c0-2.206 1.794-4 4-4s4 1.794 4 4v4h-8v-4z" style="fill: #000000;"/></svg>
