<svg xmlns="http://www.w3.org/2000/svg" viewBox="0 0 192 192"><path d="M41.256 101.667L33.87 90.172h6.294l4.406 7.553 4.372-7.553h5.665l-7.155 11.33 8.017 12.356H49.14l-5.068-8.514-5.102 8.514h-5.698l7.984-12.191zM58.62 90.172h5.3v19.412h10.435v4.274H58.62V90.172zm22.28 16.431c.995 2.418 2.584 3.445 5.235 3.445s4.24-1.093 4.24-2.915c0-1.59-.861-2.22-4.307-3.014-3.743-.862-4.902-1.26-5.995-1.955-1.823-1.16-2.684-2.783-2.684-5.068 0-4.506 3.18-7.255 8.415-7.255 4.34 0 7.354 1.623 9.142 4.903l-4.273 2.02c-1.16-2.02-2.451-2.749-4.837-2.749-2.152 0-3.378.927-3.378 2.55 0 1.492 1.026 2.187 4.107 2.783 3.214.663 4.936 1.226 6.228 2.021 1.855 1.226 2.75 2.948 2.75 5.433 0 4.77-3.346 7.42-9.342 7.42-4.97 0-8.016-1.755-9.872-5.664l4.572-1.955zM141.816 16H60v56H16v60h44v44h112V50.497L141.815 16zM144 30.646L159.185 48H144V30.646zM24 80h80v44H24V80zm44 88v-36h44V72H68V24h68v32h28v112H68z"/></svg>