<svg xmlns="http://www.w3.org/2000/svg" viewBox="0 0 192 192"><path d="M32 90.146h10.08c5.371 0 8.52 2.852 8.52 7.693 0 4.608-3.083 7.328-8.288 7.328h-5.007v8.687H32V90.146zm9.748 11.075c2.387 0 3.68-1.227 3.68-3.482 0-2.254-1.226-3.382-3.647-3.382h-4.476v6.864h4.443zM54.65 90.146h8.786c7.494 0 11.837 4.31 11.837 11.771 0 7.593-4.376 11.937-12.002 11.937H54.65V90.146zm8.886 19.497c4.045 0 6.2-2.686 6.2-7.66 0-4.94-2.188-7.626-6.233-7.626h-3.548v15.286h3.58zm16.118-19.497H96v4.278H84.959v6.266h8.521v4.145H84.96v9.019h-5.305V90.146zM141.814 16H60v56H16v60h44v44h112V50.497L141.815 16zM144 30.646L159.185 48H144V30.646zM24 80h80v44H24V80zm44 88v-36h44V72H68V24h68v32h28v112H68z"/></svg>