<svg xmlns="http://www.w3.org/2000/svg" viewBox="0 0 192 192"><path d="M172.697 156L144 118.52V64c0-26.467-21.533-48-48-48S48 37.533 48 64v54.52L19.303 156H72.34c1.91 11.336 11.79 20 23.66 20s21.75-8.664 23.66-20h53.037zM56 121.48V64c0-22.056 17.944-40 40-40s40 17.944 40 40v57.48L155.303 148H36.697L56 121.48zM96 168c-7.439 0-13.69-5.11-15.473-12h30.946c-1.783 6.89-8.034 12-15.473 12zm-71.674-46.667C21.456 113.212 20 104.689 20 96s1.456-17.212 4.326-25.333l7.543 2.666C29.302 80.596 28 88.222 28 96s1.302 15.404 3.869 22.667l-7.543 2.666zm135.805-2.666C162.698 111.404 164 103.778 164 96s-1.302-15.404-3.869-22.667l7.543-2.666C170.544 78.788 172 87.311 172 96s-1.456 17.212-4.326 25.333l-7.543-2.666z"/></svg>