<?xml version="1.0" encoding="UTF-8"?>
<svg xmlns="http://www.w3.org/2000/svg" viewBox="0 0 192 192"><path fill="#1d1d1b" d="M150.438 77.608C158.458 73.718 164 65.495 164 56c0-13.234-10.767-24-24-24s-24 10.766-24 24c0 9.5 5.548 17.727 13.573 21.614a36.447 36.447 0 0 0-9.96 4.813 32.15 32.15 0 0 1 4.64 6.57A28.431 28.431 0 0 1 140 84.025c15.46.194 27.977 12.669 27.977 27.975h8.045c0-16.139-10.78-29.824-25.584-34.392zM124 56c0-8.822 7.178-16 16-16s16 7.178 16 16-7.178 16-16 16-16-7.178-16-16zm-17.562 69.608C114.458 121.718 120 113.495 120 104c0-13.234-10.767-24-24-24s-24 10.766-24 24c0 9.495 5.543 17.719 13.562 21.608-14.804 4.568-25.585 18.253-25.585 34.392h8.046c0-15.306 12.516-27.78 27.977-27.975 15.46.194 27.977 12.669 27.977 27.975h8.045c0-16.139-10.78-29.824-25.584-34.392zM80 104c0-8.822 7.178-16 16-16s16 7.178 16 16-7.178 16-16 16-16-7.178-16-16zm-7.612-21.573a36.445 36.445 0 0 0-9.961-4.813C70.452 73.726 76 65.499 76 56c0-13.234-10.766-24-24-24S28 42.766 28 56c0 9.495 5.542 17.719 13.562 21.608C26.758 82.176 15.977 95.861 15.977 112h8.046c0-15.306 12.516-27.78 27.977-27.975a28.431 28.431 0 0 1 15.746 4.972 32.149 32.149 0 0 1 4.642-6.57zM36 56c0-8.822 7.178-16 16-16s16 7.178 16 16-7.178 16-16 16-16-7.178-16-16z" style="fill: #ffffff;"/></svg>
