<?xml version="1.0" encoding="UTF-8" standalone="no"?>
<svg
   xmlns:dc="http://purl.org/dc/elements/1.1/"
   xmlns:cc="http://creativecommons.org/ns#"
   xmlns:rdf="http://www.w3.org/1999/02/22-rdf-syntax-ns#"
   xmlns:svg="http://www.w3.org/2000/svg"
   xmlns="http://www.w3.org/2000/svg"
   xmlns:sodipodi="http://sodipodi.sourceforge.net/DTD/sodipodi-0.dtd"
   xmlns:inkscape="http://www.inkscape.org/namespaces/inkscape"
   viewBox="0 0 192 192"
   version="1.1"
   id="svg4"
   sodipodi:docname="wishlist_Fullyellow.svg"
   inkscape:version="0.92.4 (5da689c313, 2019-01-14)">
  <metadata
     id="metadata10">
    <rdf:RDF>
      <cc:Work
         rdf:about="">
        <dc:format>image/svg+xml</dc:format>
        <dc:type
           rdf:resource="http://purl.org/dc/dcmitype/StillImage" />
        <dc:title></dc:title>
      </cc:Work>
    </rdf:RDF>
  </metadata>
  <defs
     id="defs8" />
  <sodipodi:namedview
     pagecolor="#ffffff"
     bordercolor="#666666"
     borderopacity="1"
     objecttolerance="10"
     gridtolerance="10"
     guidetolerance="10"
     inkscape:pageopacity="0"
     inkscape:pageshadow="2"
     inkscape:window-width="1920"
     inkscape:window-height="1137"
     id="namedview6"
     showgrid="false"
     inkscape:zoom="4.9166667"
     inkscape:cx="96"
     inkscape:cy="96"
     inkscape:window-x="1912"
     inkscape:window-y="-8"
     inkscape:window-maximized="1"
     inkscape:current-layer="svg4" />
  <path
     d="m 96.099609,16 c -1.5,0 -2.8,0.799609 -3.5,2.099609 L 69.5,60.400391 23.400391,68.099609 c -1.5,0.2 -2.701172,1.301172 -3.201172,2.701172 -0.4,1.4 -0.1,2.9 1,4 l 34.601562,34.499999 -7.701172,46 c -0.3,1.4 0.3,2.89883 1.5,3.79883 1.2,0.9 2.79961,1.1 4.09961,0.5 L 96,140.40039 l 42.30078,19.19922 c 0.6,0.3 1.09922,0.40039 1.69922,0.40039 0.9,0 1.69922,-0.30039 2.69922,-0.90039 1.2,-0.9 1.7,-2.29883 1.5,-3.79883 l -7.69922,-46 34.5,-34.499999 c 1.1,-1 1.5,-2.6 1,-4 -0.5,-1.4 -1.69922,-2.501172 -3.19922,-2.701172 L 122.69922,60.400391 99.599609,18.099609 c -0.7,-1.3 -2,-2.099609 -3.5,-2.099609 z"
     id="path2"
     inkscape:connector-curvature="0"
     sodipodi:nodetypes="scccccccscccsccccscccs"
     style="fill:#fcaf17;fill-opacity:1" />
</svg>
