<svg xmlns="http://www.w3.org/2000/svg" viewBox="0 0 192 192"><path d="M140 160a4 4 0 0 1-1.655-.358L96 140.394l-42.345 19.248a3.999 3.999 0 0 1-5.6-4.3l7.66-45.969-34.544-34.544a4 4 0 0 1 2.171-6.775l46.08-7.68 23.07-42.29a4 4 0 0 1 7.023 0l23.064 42.29 46.079 7.68a4 4 0 0 1 2.17 6.775l-34.544 34.544 7.662 45.97A4 4 0 0 1 140 160zm-44-28c.564 0 1.13.12 1.655.358l37.165 16.893-6.766-40.593a4.003 4.003 0 0 1 1.117-3.487l30.504-30.503-40.333-6.722a4 4 0 0 1-2.854-2.031L96.003 28.354 75.51 65.916a3.999 3.999 0 0 1-2.853 2.03l-40.333 6.722 30.504 30.503a4.003 4.003 0 0 1 1.117 3.487L57.18 149.25l37.165-16.893A4.004 4.004 0 0 1 96 132z"/></svg>